<svg version="1.1" xmlns="http://www.w3.org/2000/svg" viewBox="0 0 907.5468507099406 1764.7810480738567" width="907.5468507099406" height="1764.7810480738567">
  <!-- svg-source:excalidraw -->
  
  <defs>
    <style class="style-fonts">
      @font-face {
        font-family: "Virgil";
        src: url("https://excalidraw.com/Virgil.woff2");
      }
      @font-face {
        font-family: "Cascadia";
        src: url("https://excalidraw.com/Cascadia.woff2");
      }
      @font-face {
        font-family: "Assistant";
        src: url("https://excalidraw.com/Assistant-Regular.woff2");
      }
    </style>
    
  </defs>
  <rect x="0" y="0" width="907.5468507099406" height="1764.7810480738567" fill="#ffffff"></rect><g stroke-linecap="round" transform="translate(389.26343895764535 10) rotate(0 51.5 42)"><path d="M50.6 -0.27 C59.48 -0.97, 71.57 1.64, 79.69 5.63 C87.8 9.61, 95.51 16.55, 99.27 23.66 C103.03 30.76, 103.66 40.6, 102.26 48.25 C100.86 55.9, 96.93 63.78, 90.88 69.55 C84.83 75.32, 75 80.79, 65.95 82.87 C56.91 84.94, 45.49 84.2, 36.6 81.99 C27.72 79.78, 18.65 75.21, 12.64 69.62 C6.62 64.03, 1.99 55.88, 0.51 48.47 C-0.97 41.06, 0.07 32.04, 3.75 25.14 C7.43 18.23, 12.93 11.23, 22.58 7.05 C32.23 2.86, 53.61 0.38, 61.65 0.05 C69.7 -0.27, 70.98 4.14, 70.85 5.1 M40 -0.14 C48.49 -2.27, 59.34 -0.96, 68.37 1.88 C77.4 4.72, 88.68 10.6, 94.18 16.9 C99.69 23.21, 100.98 31.95, 101.38 39.71 C101.77 47.46, 100.83 56.7, 96.55 63.43 C92.26 70.17, 83.57 76.63, 75.67 80.12 C67.77 83.61, 58.35 85, 49.15 84.37 C39.96 83.74, 28.17 80.81, 20.48 76.33 C12.78 71.86, 6.26 64.53, 2.99 57.53 C-0.28 50.53, -1.14 42.03, 0.87 34.34 C2.89 26.64, 8.26 16.68, 15.08 11.35 C21.91 6.03, 37.52 3.98, 41.83 2.38 C46.14 0.77, 40.96 1.45, 40.93 1.72" stroke="none" stroke-width="0" fill="#b2f2bb"></path><path d="M49.34 -0.35 C58.09 -1.09, 69.37 2.08, 77.33 5.91 C85.29 9.74, 92.94 15.7, 97.09 22.63 C101.24 29.57, 103.14 39.98, 102.22 47.52 C101.31 55.05, 97.51 62.1, 91.59 67.85 C85.66 73.6, 75.38 79.52, 66.67 82 C57.96 84.47, 48.07 84.78, 39.33 82.71 C30.59 80.65, 20.66 75.33, 14.25 69.61 C7.84 63.89, 2.62 55.54, 0.88 48.37 C-0.85 41.21, 0.25 33.54, 3.85 26.64 C7.45 19.74, 13.83 11.45, 22.48 6.97 C31.13 2.5, 49.22 0.69, 55.74 -0.23 C62.26 -1.15, 61.59 0.55, 61.6 1.45 M70.17 2.62 C78.86 4.83, 88.81 11.72, 94.47 17.93 C100.14 24.14, 104.05 32.53, 104.18 39.86 C104.31 47.2, 100.06 55.52, 95.26 61.93 C90.46 68.33, 83.44 74.54, 75.38 78.3 C67.32 82.06, 56.38 85.16, 46.89 84.5 C37.4 83.83, 25.62 78.96, 18.42 74.31 C11.22 69.65, 6.34 63.69, 3.67 56.57 C1.01 49.45, 0.46 39.1, 2.42 31.6 C4.38 24.1, 8.66 16.6, 15.46 11.57 C22.25 6.53, 33.98 2.65, 43.19 1.41 C52.4 0.16, 66.26 3.66, 70.74 4.09 C75.21 4.52, 70.46 3.41, 70.05 3.98" stroke="#1e1e1e" stroke-width="2" fill="none"></path></g><g transform="translate(413.14746566647955 39.30151519016499) rotate(0 27.699974060058594 12.5)"><text x="27.699974060058594" y="17.52" font-family="Virgil, Segoe UI Emoji" font-size="20px" fill="#1e1e1e" text-anchor="middle" style="white-space: pre;" direction="ltr" dominant-baseline="alphabetic">start</text></g><g stroke-linecap="round" transform="translate(336.26343895764535 160) rotate(0 105.5 52.5)"><path d="M26.25 0 C83.84 1.6, 145.65 1.98, 184.75 0 C200.59 -2.95, 210.3 8.21, 211 26.25 C214.49 39, 210.19 49.52, 211 78.75 C209.26 92.78, 200.73 103.45, 184.75 105 C126.82 107.95, 77.76 107.64, 26.25 105 C7.06 107.54, -0.32 95.44, 0 78.75 C-0.86 59.59, -0.09 42.65, 0 26.25 C-3.21 10.6, 9.79 -2.77, 26.25 0" stroke="none" stroke-width="0" fill="#a5d8ff"></path><path d="M26.25 0 C69.87 -0.06, 111.79 1.19, 184.75 0 M26.25 0 C63.8 -1.29, 98.91 -0.79, 184.75 0 M184.75 0 C201.42 1.67, 209.64 7.28, 211 26.25 M184.75 0 C202.64 -1.39, 210.77 10.93, 211 26.25 M211 26.25 C209.7 37, 212.19 48.49, 211 78.75 M211 26.25 C211.55 44.82, 209.86 63.94, 211 78.75 M211 78.75 C211.25 97.1, 200.76 103.13, 184.75 105 M211 78.75 C208.82 95.71, 200.76 106.99, 184.75 105 M184.75 105 C130.34 104.48, 79.53 106.11, 26.25 105 M184.75 105 C140.53 103.35, 94.21 104.73, 26.25 105 M26.25 105 C8.49 103.48, -0.65 95.63, 0 78.75 M26.25 105 C8.5 104.85, 0.71 94.08, 0 78.75 M0 78.75 C-0.44 58.38, 1.11 38.42, 0 26.25 M0 78.75 C0.5 59.01, 0.38 40.24, 0 26.25 M0 26.25 C1.66 10.69, 8.4 1.59, 26.25 0 M0 26.25 C-0.48 10.81, 9.54 -1.8, 26.25 0" stroke="#1e1e1e" stroke-width="2" fill="none"></path></g><g transform="translate(344.89352013440316 187.5) rotate(0 96.86991882324219 25)"><text x="96.86991882324219" y="17.52" font-family="Virgil, Segoe UI Emoji" font-size="20px" fill="#1e1e1e" text-anchor="middle" style="white-space: pre;" direction="ltr" dominant-baseline="alphabetic">intiate saved deals</text><text x="96.86991882324219" y="42.519999999999996" font-family="Virgil, Segoe UI Emoji" font-size="20px" fill="#1e1e1e" text-anchor="middle" style="white-space: pre;" direction="ltr" dominant-baseline="alphabetic">list</text></g><g stroke-linecap="round" transform="translate(334.674419317354 327.0955995683913) rotate(0 105.5 52.5)"><path d="M26.25 0 C61.03 0.93, 94.06 -0.82, 184.75 0 C199.15 0.18, 211.5 7.45, 211 26.25 C212.35 45.15, 210.85 63.54, 211 78.75 C210.98 99.34, 201.5 105.87, 184.75 105 C134.41 106.38, 82.02 103.35, 26.25 105 C9.07 103.19, -3.38 97.13, 0 78.75 C-0.87 61.51, 1.77 37.18, 0 26.25 C1.82 10.03, 12.25 -2.65, 26.25 0" stroke="none" stroke-width="0" fill="#a5d8ff"></path><path d="M26.25 0 C76.49 0.33, 130.18 -2.82, 184.75 0 M26.25 0 C82.42 -1.24, 138.27 -0.51, 184.75 0 M184.75 0 C202.46 -0.86, 210.26 10.43, 211 26.25 M184.75 0 C201.68 0.3, 212.34 9.02, 211 26.25 M211 26.25 C211.29 37.86, 210.72 50.56, 211 78.75 M211 26.25 C210.03 37.12, 210.7 49.02, 211 78.75 M211 78.75 C212.2 97.26, 203.19 105.02, 184.75 105 M211 78.75 C212.36 96.39, 202.99 105.92, 184.75 105 M184.75 105 C129 101.9, 71.22 102.49, 26.25 105 M184.75 105 C150.51 106.94, 116.33 105.69, 26.25 105 M26.25 105 C8.91 105.42, 1 98.04, 0 78.75 M26.25 105 C6.63 104.62, 1.2 95.62, 0 78.75 M0 78.75 C1.66 64.38, -0.28 51.61, 0 26.25 M0 78.75 C0.51 68.26, 0.77 56.91, 0 26.25 M0 26.25 C1.9 8.6, 8.16 1.91, 26.25 0 M0 26.25 C0.33 8.23, 9.8 -0.24, 26.25 0" stroke="#1e1e1e" stroke-width="2" fill="none"></path></g><g transform="translate(356.6544913388384 354.5955995683913) rotate(0 83.51992797851562 25)"><text x="83.51992797851562" y="17.52" font-family="Virgil, Segoe UI Emoji" font-size="20px" fill="#1e1e1e" text-anchor="middle" style="white-space: pre;" direction="ltr" dominant-baseline="alphabetic">initiate unsaved </text><text x="83.51992797851562" y="42.519999999999996" font-family="Virgil, Segoe UI Emoji" font-size="20px" fill="#1e1e1e" text-anchor="middle" style="white-space: pre;" direction="ltr" dominant-baseline="alphabetic">deals list</text></g><g stroke-linecap="round" transform="translate(331.15389640368085 518.6569072662862) rotate(0 105.5 52.5)"><path d="M26.25 0 C82.69 0.13, 132.02 2.91, 184.75 0 C204.91 1.8, 212.81 9.66, 211 26.25 C210.69 43.16, 208.3 53.31, 211 78.75 C209.42 95.48, 199.82 102.53, 184.75 105 C147.53 105.17, 110.84 104.95, 26.25 105 C10.43 102.61, 2.85 94.28, 0 78.75 C-2.1 57.04, 0.52 40.51, 0 26.25 C3.36 12.12, 6.22 1.86, 26.25 0" stroke="none" stroke-width="0" fill="#a5d8ff"></path><path d="M26.25 0 C60.59 -1.77, 97.69 -2.94, 184.75 0 M26.25 0 C84.84 -0.19, 141.28 0.14, 184.75 0 M184.75 0 C202.08 1.02, 211.09 7.25, 211 26.25 M184.75 0 C202.23 -1.93, 213.06 9.61, 211 26.25 M211 26.25 C210.41 44.08, 209.57 59.07, 211 78.75 M211 26.25 C210.05 46.39, 211.42 65.5, 211 78.75 M211 78.75 C211.46 97.83, 201.9 105.22, 184.75 105 M211 78.75 C209.24 96.87, 201.87 103.82, 184.75 105 M184.75 105 C144.59 105.79, 102.36 105.51, 26.25 105 M184.75 105 C140.39 104.66, 97.03 104.77, 26.25 105 M26.25 105 C8.16 105.33, -0.52 97.68, 0 78.75 M26.25 105 C10.69 104.96, 1.72 96.53, 0 78.75 M0 78.75 C1.23 62.03, 0.95 46.87, 0 26.25 M0 78.75 C0.08 61.58, -0.77 45.86, 0 26.25 M0 26.25 C0.64 8.3, 9.49 -1.1, 26.25 0 M0 26.25 C-1.5 9.96, 7.58 2.26, 26.25 0" stroke="#1e1e1e" stroke-width="2" fill="none"></path></g><g transform="translate(343.0139733079777 558.6569072662862) rotate(0 93.63992309570312 12.5)"><text x="93.63992309570312" y="17.52" font-family="Virgil, Segoe UI Emoji" font-size="20px" fill="#1e1e1e" text-anchor="middle" style="white-space: pre;" direction="ltr" dominant-baseline="alphabetic">read incoming deals</text></g><g stroke-linecap="round" transform="translate(321.1279490275208 931.9160789952614) rotate(0 105.5 52.5)"><path d="M26.25 0 C68.97 -1.69, 111 -0.74, 184.75 0 C203.62 1.87, 210.27 7.37, 211 26.25 C211.53 41.92, 209.86 51.95, 211 78.75 C210.06 97.36, 198.92 106.3, 184.75 105 C149.19 104.86, 112.27 104.73, 26.25 105 C10.24 106.16, 1.9 94.64, 0 78.75 C-2.79 67.36, -1.28 56.94, 0 26.25 C-2.39 7.22, 10.53 3.11, 26.25 0" stroke="none" stroke-width="0" fill="#a5d8ff"></path><path d="M26.25 0 C62.2 0.85, 98.81 -0.31, 184.75 0 M26.25 0 C89.59 0.09, 151.95 -0.41, 184.75 0 M184.75 0 C200.59 -1.5, 210.34 8.23, 211 26.25 M184.75 0 C202.46 -1.67, 212.84 7.34, 211 26.25 M211 26.25 C211.31 36.48, 209.72 47.05, 211 78.75 M211 26.25 C212.01 40.74, 211.82 57.15, 211 78.75 M211 78.75 C209.16 94.82, 201.01 105.35, 184.75 105 M211 78.75 C211.78 96.06, 204.13 104.72, 184.75 105 M184.75 105 C154.46 105.84, 120.94 103.4, 26.25 105 M184.75 105 C145.84 104.35, 106.24 104.48, 26.25 105 M26.25 105 C8.58 106.06, 1.82 96.63, 0 78.75 M26.25 105 C7.15 104.9, 1.31 98.29, 0 78.75 M0 78.75 C-0.63 65.09, 2.2 47.16, 0 26.25 M0 78.75 C0.31 60.05, 0.6 40.33, 0 26.25 M0 26.25 C-0.07 8.15, 7.52 -1.04, 26.25 0 M0 26.25 C0.73 10.32, 10.97 -0.13, 26.25 0" stroke="#1e1e1e" stroke-width="2" fill="none"></path></g><g transform="translate(335.30801799724736 971.9160789952614) rotate(0 91.31993103027344 12.5)"><text x="91.31993103027344" y="17.52" font-family="Virgil, Segoe UI Emoji" font-size="20px" fill="#1e1e1e" text-anchor="middle" style="white-space: pre;" direction="ltr" dominant-baseline="alphabetic">save to database</text></g><g stroke-linecap="round" transform="translate(335.1826160063222 1267.3031040440658) rotate(0 105.5 52.5)"><path d="M26.25 0 C59.45 3.22, 89.19 3.29, 184.75 0 C205.58 0.58, 211.07 9.49, 211 26.25 C212.29 46.53, 211.71 63.37, 211 78.75 C210.91 99.26, 200.66 103.59, 184.75 105 C145.8 105.63, 106.52 100.6, 26.25 105 C7.14 107.99, 1.89 93.17, 0 78.75 C-3.06 64.14, -4.02 49.56, 0 26.25 C-2.28 6.52, 5.29 2.92, 26.25 0" stroke="none" stroke-width="0" fill="#a5d8ff"></path><path d="M26.25 0 C69.52 -0.51, 114.78 0.25, 184.75 0 M26.25 0 C61.42 -0.44, 95.54 -0.52, 184.75 0 M184.75 0 C200.67 0.13, 212.44 8.03, 211 26.25 M184.75 0 C200.37 0.65, 210.63 10.28, 211 26.25 M211 26.25 C210.74 48.03, 210.09 68.61, 211 78.75 M211 26.25 C211.91 42.68, 211.55 60.8, 211 78.75 M211 78.75 C210.01 94.57, 202.89 103.63, 184.75 105 M211 78.75 C212.06 97.9, 201.45 104.7, 184.75 105 M184.75 105 C122.36 104.29, 58.86 105.06, 26.25 105 M184.75 105 C137.82 104.93, 89.81 104.44, 26.25 105 M26.25 105 C10.2 105.06, -0.75 94.76, 0 78.75 M26.25 105 C9.23 103.52, 1.89 97.47, 0 78.75 M0 78.75 C-0.44 67.01, -0.21 52.46, 0 26.25 M0 78.75 C0.54 59.39, 0.8 38.04, 0 26.25 M0 26.25 C-0.42 10.27, 9.51 1.05, 26.25 0 M0 26.25 C0.89 10.75, 10.81 -1.04, 26.25 0" stroke="#1e1e1e" stroke-width="2" fill="none"></path></g><g transform="translate(344.7627017607167 1282.3031040440658) rotate(0 95.91991424560547 37.5)"><text x="95.91991424560547" y="17.52" font-family="Virgil, Segoe UI Emoji" font-size="20px" fill="#1e1e1e" text-anchor="middle" style="white-space: pre;" direction="ltr" dominant-baseline="alphabetic">add unsaved and </text><text x="95.91991424560547" y="42.519999999999996" font-family="Virgil, Segoe UI Emoji" font-size="20px" fill="#1e1e1e" text-anchor="middle" style="white-space: pre;" direction="ltr" dominant-baseline="alphabetic">saved to response </text><text x="95.91991424560547" y="67.52" font-family="Virgil, Segoe UI Emoji" font-size="20px" fill="#1e1e1e" text-anchor="middle" style="white-space: pre;" direction="ltr" dominant-baseline="alphabetic">entity</text></g><g stroke-linecap="round" transform="translate(336.96091820385004 1460.2358801490723) rotate(0 105.5 52.5)"><path d="M26.25 0 C81.5 3.74, 133.58 -1.1, 184.75 0 C205.77 -0.29, 208.81 9.35, 211 26.25 C211.08 40.76, 214.77 58.89, 211 78.75 C213.93 97.33, 205.4 107, 184.75 105 C149.45 101.3, 110.21 105.2, 26.25 105 C7.02 104.16, 2.57 93.64, 0 78.75 C3.05 58.14, -1.19 42.91, 0 26.25 C2.56 5.86, 9.33 1.61, 26.25 0" stroke="none" stroke-width="0" fill="#a5d8ff"></path><path d="M26.25 0 C60.49 2.23, 91.66 -0.41, 184.75 0 M26.25 0 C70.44 0.18, 114.02 -0.16, 184.75 0 M184.75 0 C200.8 0.87, 209.3 8.89, 211 26.25 M184.75 0 C202.83 0.65, 212.09 9.08, 211 26.25 M211 26.25 C209.78 38.25, 210.9 54.57, 211 78.75 M211 26.25 C211.04 43.29, 210.73 59.83, 211 78.75 M211 78.75 C211.1 98.05, 203.99 103.96, 184.75 105 M211 78.75 C212.54 94.25, 201.01 102.96, 184.75 105 M184.75 105 C144.83 105.28, 106.01 105.48, 26.25 105 M184.75 105 C148.01 105.11, 110.48 105.84, 26.25 105 M26.25 105 C9.04 104.32, -1.37 95.49, 0 78.75 M26.25 105 C6.64 106.61, -0.67 96.8, 0 78.75 M0 78.75 C1.38 64.55, -1 47.14, 0 26.25 M0 78.75 C-0.68 61.44, 0.37 43.63, 0 26.25 M0 26.25 C1.05 10.66, 10.55 -1.85, 26.25 0 M0 26.25 C1.72 10.03, 10.33 1.59, 26.25 0" stroke="#1e1e1e" stroke-width="2" fill="none"></path></g><g transform="translate(361.1509969392016 1487.7358801490723) rotate(0 81.30992126464844 25)"><text x="81.30992126464844" y="17.52" font-family="Virgil, Segoe UI Emoji" font-size="20px" fill="#1e1e1e" text-anchor="middle" style="white-space: pre;" direction="ltr" dominant-baseline="alphabetic">return response </text><text x="81.30992126464844" y="42.519999999999996" font-family="Virgil, Segoe UI Emoji" font-size="20px" fill="#1e1e1e" text-anchor="middle" style="white-space: pre;" direction="ltr" dominant-baseline="alphabetic">entity</text></g><g stroke-linecap="round" transform="translate(686.5468507099406 717.9322462261166) rotate(0 105.5 52.5)"><path d="M26.25 0 C76.97 0.6, 126.48 1.7, 184.75 0 C199.38 -0.76, 211.8 7.4, 211 26.25 C210.67 41.61, 210.28 62.78, 211 78.75 C213.79 92.74, 203.82 102.13, 184.75 105 C139.38 102.69, 98.79 101.58, 26.25 105 C5.53 106.94, -0.32 92.85, 0 78.75 C-1.51 65.9, -0.57 55.27, 0 26.25 C-2.63 8.53, 5.92 0.42, 26.25 0" stroke="none" stroke-width="0" fill="#a5d8ff"></path><path d="M26.25 0 C58.46 1.57, 92.07 0.43, 184.75 0 M26.25 0 C62.87 0.62, 98.94 0.5, 184.75 0 M184.75 0 C203.97 -0.52, 209.52 7.4, 211 26.25 M184.75 0 C203.48 0.08, 210.14 9.44, 211 26.25 M211 26.25 C210.35 42.64, 210.36 61.61, 211 78.75 M211 26.25 C211.49 37.26, 211.76 49.19, 211 78.75 M211 78.75 C212.28 98.17, 202.1 103.97, 184.75 105 M211 78.75 C211.83 94.88, 201.61 102.7, 184.75 105 M184.75 105 C132.97 103.76, 76.8 103.43, 26.25 105 M184.75 105 C123.36 105.18, 61.85 105.45, 26.25 105 M26.25 105 C8.25 105.35, 0.89 98.02, 0 78.75 M26.25 105 C6.48 105.85, -0.17 98.33, 0 78.75 M0 78.75 C0.8 63.67, -0.44 49.7, 0 26.25 M0 78.75 C-1.15 66.9, 0.26 55.7, 0 26.25 M0 26.25 C-0.75 7.34, 9.23 1.27, 26.25 0 M0 26.25 C1.18 10.19, 7.57 -0.78, 26.25 0" stroke="#1e1e1e" stroke-width="2" fill="none"></path></g><g transform="translate(708.9669099140422 745.4322462261166) rotate(0 83.07994079589844 25)"><text x="83.07994079589844" y="17.52" font-family="Virgil, Segoe UI Emoji" font-size="20px" fill="#1e1e1e" text-anchor="middle" style="white-space: pre;" direction="ltr" dominant-baseline="alphabetic">add to unsaved </text><text x="83.07994079589844" y="42.519999999999996" font-family="Virgil, Segoe UI Emoji" font-size="20px" fill="#1e1e1e" text-anchor="middle" style="white-space: pre;" direction="ltr" dominant-baseline="alphabetic">deals list</text></g><g stroke-linecap="round"><g transform="translate(437.82101588760383 100.95402894875849) rotate(0 -0.9880634376507942 24.777748940277974)"><path d="M0.27 0.17 C-0.1 8.26, -1.6 40.91, -2.05 49.06 M-0.26 -0.21 C-0.67 8.21, -1.82 41.44, -2.25 49.77" stroke="#1e1e1e" stroke-width="2" fill="none"></path></g><g transform="translate(437.82101588760383 100.95402894875849) rotate(0 -0.9880634376507942 24.777748940277974)"><path d="M-9.68 26.36 C-6.78 34.95, -4.61 41.96, -2.25 49.77 M-9.68 26.36 C-7.4 33.52, -4.66 40.47, -2.25 49.77" stroke="#1e1e1e" stroke-width="2" fill="none"></path></g><g transform="translate(437.82101588760383 100.95402894875849) rotate(0 -0.9880634376507942 24.777748940277974)"><path d="M7.11 27.06 C4.43 35.46, 1.03 42.24, -2.25 49.77 M7.11 27.06 C4.18 34.04, 1.7 40.77, -2.25 49.77" stroke="#1e1e1e" stroke-width="2" fill="none"></path></g></g><mask></mask><g stroke-linecap="round"><g transform="translate(436.20021284170593 274.2408520456899) rotate(0 0.4190528351031162 20.788593172232794)"><path d="M-0.28 -0.32 C-0.35 6.56, 0.03 34.3, 0.05 41.42 M0.58 0.7 C0.65 7.63, 1.07 35.08, 1.12 41.9" stroke="#1e1e1e" stroke-width="2" fill="none"></path></g><g transform="translate(436.20021284170593 274.2408520456899) rotate(0 0.4190528351031162 20.788593172232794)"><path d="M-6.27 22.33 C-3.96 29.38, -1.28 36.63, 1.12 41.9 M-6.27 22.33 C-3.86 30.17, 0.01 37.82, 1.12 41.9" stroke="#1e1e1e" stroke-width="2" fill="none"></path></g><g transform="translate(436.20021284170593 274.2408520456899) rotate(0 0.4190528351031162 20.788593172232794)"><path d="M8.04 22.15 C4.78 29.24, 1.9 36.56, 1.12 41.9 M8.04 22.15 C4.75 30.06, 2.91 37.78, 1.12 41.9" stroke="#1e1e1e" stroke-width="2" fill="none"></path></g></g><mask></mask><g stroke-linecap="round"><g transform="translate(431.09933410613485 446.7884778011362) rotate(0 0.3913544858996829 30.180537755742364)"><path d="M0.47 -1.01 C0.7 9.07, 1.52 49.77, 1.52 59.85 M-0.74 1.08 C-0.68 11.41, -0.05 51.46, 0.55 61.37" stroke="#1e1e1e" stroke-width="2" fill="none"></path></g><g transform="translate(431.09933410613485 446.7884778011362) rotate(0 0.3913544858996829 30.180537755742364)"><path d="M-8.8 38.18 C-7.69 45.28, -3.16 50.79, 0.55 61.37 M-8.8 38.18 C-5.54 43.28, -3.81 50.73, 0.55 61.37" stroke="#1e1e1e" stroke-width="2" fill="none"></path></g><g transform="translate(431.09933410613485 446.7884778011362) rotate(0 0.3913544858996829 30.180537755742364)"><path d="M8.29 37.59 C4.08 44.94, 3.3 50.64, 0.55 61.37 M8.29 37.59 C7.07 42.87, 4.33 50.47, 0.55 61.37" stroke="#1e1e1e" stroke-width="2" fill="none"></path></g></g><mask></mask><g stroke-linecap="round" transform="translate(316.6593749416213 677.925036182499) rotate(0 116.53403082737236 81.13699345323624)"><path d="M146.25 20.5 C166.78 40.45, 194.37 56.22, 203.82 61.5 C233.63 78.86, 230.19 78.65, 203.82 102.5 C185.72 114.92, 172.83 119.26, 146.25 141.77 C113.83 161.8, 114.86 163.7, 87.75 141.77 C64.8 129.9, 42.83 111.62, 29.25 102.5 C2.89 81.05, 1.96 81.85, 29.25 61.5 C42.13 49.73, 52.6 44.83, 87.75 20.5 C120.56 -0.33, 113.79 2.3, 146.25 20.5" stroke="none" stroke-width="0" fill="#ffec99"></path><path d="M146.25 20.5 C162.7 32.64, 179.56 44.35, 203.82 61.5 M146.25 20.5 C166.81 33.68, 184.83 49.12, 203.82 61.5 M203.82 61.5 C233.72 81.04, 233.32 81.23, 203.82 102.5 M203.82 61.5 C234.44 83.01, 231.04 83.74, 203.82 102.5 M203.82 102.5 C189.56 113.17, 176.05 120.62, 146.25 141.77 M203.82 102.5 C189.32 111.18, 175.93 121.03, 146.25 141.77 M146.25 141.77 C117.67 162.93, 116.08 161.67, 87.75 141.77 M146.25 141.77 C116.6 163.84, 116 160.83, 87.75 141.77 M87.75 141.77 C69.68 131.38, 51.83 117.62, 29.25 102.5 M87.75 141.77 C64.95 125.42, 40.19 109.59, 29.25 102.5 M29.25 102.5 C-1.27 83.49, 1.52 82.24, 29.25 61.5 M29.25 102.5 C-1.96 81.84, 0.02 80.81, 29.25 61.5 M29.25 61.5 C48.15 47.39, 66.31 36.48, 87.75 20.5 M29.25 61.5 C44.46 49.52, 61.84 39.47, 87.75 20.5 M87.75 20.5 C115.02 1.87, 118.43 -0.96, 146.25 20.5 M87.75 20.5 C117.44 -0.14, 117.39 1.31, 146.25 20.5" stroke="#1e1e1e" stroke-width="2" fill="none"></path></g><g transform="translate(388.7264239246433 733.993532909117) rotate(0 44.69996643066406 25)"><text x="44.69996643066406" y="17.52" font-family="Virgil, Segoe UI Emoji" font-size="20px" fill="#1e1e1e" text-anchor="middle" style="white-space: pre;" direction="ltr" dominant-baseline="alphabetic">valid </text><text x="44.69996643066406" y="42.519999999999996" font-family="Virgil, Segoe UI Emoji" font-size="20px" fill="#1e1e1e" text-anchor="middle" style="white-space: pre;" direction="ltr" dominant-baseline="alphabetic">object ? </text></g><g stroke-linecap="round" transform="translate(313.6865293888336 1115.2493249598588) rotate(0 116.53403082737236 35)"><path d="M146.25 9 C159.02 14.74, 172.32 18.77, 203.82 27 C232.44 34.51, 234.19 39.13, 203.82 45 C183.09 54.85, 162.22 60.62, 146.25 61 C114.27 67.34, 118.57 72.29, 87.75 61 C70.88 58.01, 59.35 57.67, 29.25 45 C-0.62 36.4, 1.21 37.26, 29.25 27 C47.33 21.86, 73.72 14.35, 87.75 9 C116.11 -2.6, 118.83 2.59, 146.25 9" stroke="none" stroke-width="0" fill="#ffec99"></path><path d="M146.25 9 C167.02 14.04, 185.2 23.76, 203.82 27 M146.25 9 C160.97 12.68, 173.97 16.8, 203.82 27 M203.82 27 C234.29 37.11, 233.32 34.43, 203.82 45 M203.82 27 C234.99 34.77, 235.32 36.97, 203.82 45 M203.82 45 C188.98 48.13, 169.45 54.65, 146.25 61 M203.82 45 C184.68 50.82, 165.15 56.59, 146.25 61 M146.25 61 C116.79 70.09, 118.59 71.43, 87.75 61 M146.25 61 C114.91 68.02, 119.03 72.03, 87.75 61 M87.75 61 C73.13 58.49, 57.37 52.06, 29.25 45 M87.75 61 C69.19 55.95, 51.34 51.54, 29.25 45 M29.25 45 C1.15 34.19, -1.18 36.84, 29.25 27 M29.25 45 C2.21 35.98, -1.57 35.27, 29.25 27 M29.25 27 C47.74 22.33, 69.07 16.51, 87.75 9 M29.25 27 C46.18 21.94, 64.94 16.07, 87.75 9 M87.75 9 C118.99 -0.65, 116.05 1.84, 146.25 9 M87.75 9 C118.34 -0.38, 117.87 1.13, 146.25 9" stroke="#1e1e1e" stroke-width="2" fill="none"></path></g><g transform="translate(397.303573794219 1137.7493249598588) rotate(0 33.149971008300724 12.5)"><text x="33.14997100830078" y="17.52" font-family="Virgil, Segoe UI Emoji" font-size="20px" fill="#1e1e1e" text-anchor="middle" style="white-space: pre;" direction="ltr" dominant-baseline="alphabetic">saved?</text></g><g stroke-linecap="round"><g transform="translate(433.52813499427634 639.294970714862) rotate(0 -0.8460761569635906 16.75144820591572)"><path d="M0.3 -0.37 C0.1 5.28, -1.27 28.14, -1.63 33.87 M-0.2 0.63 C-0.44 6.11, -1.64 27.63, -2 33.04" stroke="#1e1e1e" stroke-width="2" fill="none"></path></g><g transform="translate(433.52813499427634 639.294970714862) rotate(0 -0.8460761569635906 16.75144820591572)"><path d="M-6.8 16.92 C-6.27 20.79, -4.2 24.06, -2 33.04 M-6.8 16.92 C-4.85 22.74, -3.16 28.74, -2 33.04" stroke="#1e1e1e" stroke-width="2" fill="none"></path></g><g transform="translate(433.52813499427634 639.294970714862) rotate(0 -0.8460761569635906 16.75144820591572)"><path d="M4.69 17.6 C2.6 21.35, 2.05 24.46, -2 33.04 M4.69 17.6 C2.37 23.21, -0.21 28.96, -2 33.04" stroke="#1e1e1e" stroke-width="2" fill="none"></path></g></g><mask></mask><g mask="url(#mask-TkoMF2vEMJnb96S9Sr-De)" stroke-linecap="round"><g transform="translate(566.5900075635366 757.3719558289777) rotate(0 56.18840518675415 2.237794542654683)"><path d="M0.56 -0.86 C18.96 -0.09, 92.01 3.11, 110.67 3.76 M-0.6 1.31 C18.15 2.35, 94.15 4.88, 112.98 5.33" stroke="#1e1e1e" stroke-width="2" fill="none"></path></g><g transform="translate(566.5900075635366 757.3719558289777) rotate(0 56.18840518675415 2.237794542654683)"><path d="M89.24 13.18 C95.6 9.23, 104.88 9.81, 112.98 5.33 M89.24 13.18 C95.52 10.45, 100.33 9.88, 112.98 5.33" stroke="#1e1e1e" stroke-width="2" fill="none"></path></g><g transform="translate(566.5900075635366 757.3719558289777) rotate(0 56.18840518675415 2.237794542654683)"><path d="M89.75 -3.91 C95.83 -2.3, 104.94 3.85, 112.98 5.33 M89.75 -3.91 C95.95 -2.45, 100.64 1.16, 112.98 5.33" stroke="#1e1e1e" stroke-width="2" fill="none"></path></g></g><mask id="mask-TkoMF2vEMJnb96S9Sr-De"><rect x="0" y="0" fill="#fff" width="778.0368008196897" height="861.0561473415777"></rect><rect x="612.1034127365349" y="746.7140515852777" fill="#000" width="20.41998291015625" height="25" opacity="1"></rect></mask><g transform="translate(612.1034127365349 746.7140515852777) rotate(0 10.675000013755835 12.895698786354615)"><text x="10.209991455078125" y="17.52" font-family="Virgil, Segoe UI Emoji" font-size="20px" fill="#1e1e1e" text-anchor="middle" style="white-space: pre;" direction="ltr" dominant-baseline="alphabetic">no</text></g><g stroke-linecap="round"><g transform="translate(794.0167336274765 704.9929709143546) rotate(0 -120.60881443984704 -74.01604868830708)"><path d="M0.72 -1.18 C-3.39 -23.59, 16.96 -110.88, -23.81 -134.82 C-64.58 -158.77, -207.48 -143.04, -243.88 -144.83 M-0.36 0.81 C-4.18 -21.45, 18.58 -109.23, -21.59 -133.82 C-61.77 -158.41, -204.77 -144.97, -241.42 -146.74" stroke="#1e1e1e" stroke-width="2" fill="none"></path></g><g transform="translate(794.0167336274765 704.9929709143546) rotate(0 -120.60881443984704 -74.01604868830708)"><path d="M-218.1 -155.74 C-228.79 -153.82, -237.2 -150.27, -241.42 -146.74 M-218.1 -155.74 C-227.17 -151.86, -234.28 -148.29, -241.42 -146.74" stroke="#1e1e1e" stroke-width="2" fill="none"></path></g><g transform="translate(794.0167336274765 704.9929709143546) rotate(0 -120.60881443984704 -74.01604868830708)"><path d="M-217.77 -138.64 C-228.53 -143.09, -237.06 -145.91, -241.42 -146.74 M-217.77 -138.64 C-227.08 -141.08, -234.32 -143.82, -241.42 -146.74" stroke="#1e1e1e" stroke-width="2" fill="none"></path></g></g><mask></mask><g mask="url(#mask-YyfdAJdM42LpCN3OF2WTb)" stroke-linecap="round"><g transform="translate(433.15474533898646 861.0807821765522) rotate(0 -1.0415880371199364 31.207053985960442)"><path d="M0 0.85 C-0.52 11.13, -1.94 50.89, -2.1 60.9 M-1.45 0.25 C-1.72 10.76, 0.06 51.88, 0.02 62.16" stroke="#1e1e1e" stroke-width="2" fill="none"></path></g><g transform="translate(433.15474533898646 861.0807821765522) rotate(0 -1.0415880371199364 31.207053985960442)"><path d="M-9.05 38.86 C-4.27 46.02, -3.05 56.97, 0.02 62.16 M-9.05 38.86 C-6.15 45.63, -4.3 50.58, 0.02 62.16" stroke="#1e1e1e" stroke-width="2" fill="none"></path></g><g transform="translate(433.15474533898646 861.0807821765522) rotate(0 -1.0415880371199364 31.207053985960442)"><path d="M8.05 38.49 C6.2 45.79, 0.8 56.89, 0.02 62.16 M8.05 38.49 C6.54 45.34, 4 50.39, 0.02 62.16" stroke="#1e1e1e" stroke-width="2" fill="none"></path></g></g><mask id="mask-YyfdAJdM42LpCN3OF2WTb"><rect x="0" y="0" fill="#fff" width="534.1353530615168" height="1022.5066214557748"></rect><rect x="416.6044591779166" y="879.2937018161635" fill="#000" width="32.119964599609375" height="25" opacity="1"></rect></mask><g transform="translate(416.6044591779166 879.2937018161635) rotate(0 15.508698123949898 12.994134346349142)"><text x="16.059982299804688" y="17.52" font-family="Virgil, Segoe UI Emoji" font-size="20px" fill="#1e1e1e" text-anchor="middle" style="white-space: pre;" direction="ltr" dominant-baseline="alphabetic">Yes</text></g><g stroke-linecap="round"><g transform="translate(434.611010038446 1053.3059454054141) rotate(0 0.49959358959688416 24.430803660394417)"><path d="M-0.22 -0.2 C0.02 7.96, 0.89 40.86, 1.22 49.1 M0.67 -0.78 C0.84 7.43, 0.58 41.22, 0.73 49.64" stroke="#1e1e1e" stroke-width="2" fill="none"></path></g><g transform="translate(434.611010038446 1053.3059454054141) rotate(0 0.49959358959688416 24.430803660394417)"><path d="M-7.81 26.45 C-5.85 32.5, -3.75 39.66, 0.73 49.64 M-7.81 26.45 C-5.96 32.66, -2.9 39.5, 0.73 49.64" stroke="#1e1e1e" stroke-width="2" fill="none"></path></g><g transform="translate(434.611010038446 1053.3059454054141) rotate(0 0.49959358959688416 24.430803660394417)"><path d="M9.1 26.39 C6.51 32.42, 4.08 39.6, 0.73 49.64 M9.1 26.39 C6.33 32.61, 4.77 39.47, 0.73 49.64" stroke="#1e1e1e" stroke-width="2" fill="none"></path></g></g><mask></mask><g mask="url(#mask-uhyGwPFsqyeInTP0Oavmc)" stroke-linecap="round"><g transform="translate(304.8349342327149 1149.3763592075422) rotate(0 -133.1977695111172 -286.8247899491974)"><path d="M-0.03 0.13 C-46.21 -22.53, -280.27 -41.47, -278.19 -136.8 C-276.11 -232.14, -35.95 -499.3, 12.45 -571.88 M-1.5 -0.85 C-47.69 -23.74, -281.07 -42.82, -278.83 -138.31 C-276.58 -233.8, -36.61 -501.68, 11.96 -573.78" stroke="#1e1e1e" stroke-width="2" fill="none"></path></g><g transform="translate(304.8349342327149 1149.3763592075422) rotate(0 -133.1977695111172 -286.8247899491974)"><path d="M4.29 -549.98 C6.26 -553.94, 9.59 -558.99, 11.96 -573.78 M4.29 -549.98 C7.04 -558.39, 10.54 -568.39, 11.96 -573.78" stroke="#1e1e1e" stroke-width="2" fill="none"></path></g><g transform="translate(304.8349342327149 1149.3763592075422) rotate(0 -133.1977695111172 -286.8247899491974)"><path d="M-9.21 -560.48 C-4.51 -562.26, 1.62 -565.13, 11.96 -573.78 M-9.21 -560.48 C-1.45 -565.06, 7.04 -571.18, 11.96 -573.78" stroke="#1e1e1e" stroke-width="2" fill="none"></path></g></g><mask id="mask-uhyGwPFsqyeInTP0Oavmc"><rect x="0" y="0" fill="#fff" width="695.5325297541003" height="1822.0860737744642"></rect><rect x="10" y="998.9035892942236" fill="#000" width="32.119964599609375" height="25" opacity="1"></rect></mask><g transform="translate(10 998.9035892942236) rotate(0 161.63716472159769 -136.35202003587875)"><text x="16.059982299804688" y="17.52" font-family="Virgil, Segoe UI Emoji" font-size="20px" fill="#1e1e1e" text-anchor="middle" style="white-space: pre;" direction="ltr" dominant-baseline="alphabetic">Yes</text></g><g mask="url(#mask-w4Xwx3jDPqK7TUbME0ywR)" stroke-linecap="round"><g transform="translate(561.7810539932591 1150.9602031717623) rotate(0 121.33601674745535 -155.364569108885)"><path d="M0.12 0.1 C38.07 -13.4, 189.86 -28.85, 227.52 -80.67 C265.17 -132.49, 226.39 -272.4, 226.04 -310.82 M-1.28 -0.9 C36.49 -14.79, 188.43 -31.08, 226.27 -82.57 C264.12 -134.06, 225.87 -271.83, 225.81 -309.84" stroke="#1e1e1e" stroke-width="2" fill="none"></path></g><g transform="translate(561.7810539932591 1150.9602031717623) rotate(0 121.33601674745535 -155.364569108885)"><path d="M237.31 -287.65 C234.18 -294.81, 231.5 -298.43, 225.81 -309.84 M237.31 -287.65 C233.45 -293.93, 231.4 -297.71, 225.81 -309.84" stroke="#1e1e1e" stroke-width="2" fill="none"></path></g><g transform="translate(561.7810539932591 1150.9602031717623) rotate(0 121.33601674745535 -155.364569108885)"><path d="M220.35 -285.45 C221.98 -293.24, 224.07 -297.48, 225.81 -309.84 M220.35 -285.45 C220.66 -292.13, 222.8 -296.45, 225.81 -309.84" stroke="#1e1e1e" stroke-width="2" fill="none"></path></g></g><mask id="mask-w4Xwx3jDPqK7TUbME0ywR"><rect x="0" y="0" fill="#fff" width="889.856071550832" height="1561.1422270500614"></rect><rect x="777.8760834526875" y="1057.3668635957365" fill="#000" width="23.959976196289062" height="25" opacity="1"></rect></mask><g transform="translate(777.8760834526877 1057.3668635957365) rotate(0 -94.75901271197301 -61.77122953285925)"><text x="11.979988098144531" y="17.52" font-family="Virgil, Segoe UI Emoji" font-size="20px" fill="#1e1e1e" text-anchor="middle" style="white-space: pre;" direction="ltr" dominant-baseline="alphabetic">No</text></g><g stroke-linecap="round"><g transform="translate(434.49961969573496 1193.303244650309) rotate(0 -0.7854963049087473 33.250958921791494)"><path d="M0.18 -0.26 C-0.08 10.99, -0.66 56.88, -0.62 67.95 M-1.18 -1.45 C-1.7 9.47, -1.87 54.98, -1.66 66.41" stroke="#1e1e1e" stroke-width="2" fill="none"></path></g><g transform="translate(434.49961969573496 1193.303244650309) rotate(0 -0.7854963049087473 33.250958921791494)"><path d="M-10.33 42.96 C-7.42 51.52, -1.84 62.1, -1.66 66.41 M-10.33 42.96 C-8.45 47.73, -5.42 55.11, -1.66 66.41" stroke="#1e1e1e" stroke-width="2" fill="none"></path></g><g transform="translate(434.49961969573496 1193.303244650309) rotate(0 -0.7854963049087473 33.250958921791494)"><path d="M6.77 42.88 C3.22 51.49, 2.32 62.1, -1.66 66.41 M6.77 42.88 C4.47 47.73, 3.32 55.13, -1.66 66.41" stroke="#1e1e1e" stroke-width="2" fill="none"></path></g></g><mask></mask><g stroke-linecap="round"><g transform="translate(440.7621110814405 1389.7650172412418) rotate(0 0.8046972762260793 29.267187408864288)"><path d="M-0.84 -0.57 C-0.8 9.15, -0.33 49.45, 0.12 59.1 M0.91 1.75 C1.36 11.05, 2.34 47.9, 2.45 57.29" stroke="#1e1e1e" stroke-width="2" fill="none"></path></g><g transform="translate(440.7621110814405 1389.7650172412418) rotate(0 0.8046972762260793 29.267187408864288)"><path d="M-6.58 33.98 C-4.77 39.56, -0.25 49.14, 2.45 57.29 M-6.58 33.98 C-4.94 39.09, -3.62 43.45, 2.45 57.29" stroke="#1e1e1e" stroke-width="2" fill="none"></path></g><g transform="translate(440.7621110814405 1389.7650172412418) rotate(0 0.8046972762260793 29.267187408864288)"><path d="M10.52 33.62 C7.4 39.19, 6.99 48.87, 2.45 57.29 M10.52 33.62 C8.66 38.67, 6.5 43.1, 2.45 57.29" stroke="#1e1e1e" stroke-width="2" fill="none"></path></g></g><mask></mask><g stroke-linecap="round" transform="translate(381.1591829745138 1646.1603606980614) rotate(0 55.99438535263863 54.31034368789767)"><path d="M73.33 3.81 C81.98 5.98, 92.16 12.14, 98.52 18.68 C104.88 25.22, 109.9 34, 111.51 43.04 C113.12 52.08, 111.44 64.26, 108.18 72.92 C104.93 81.57, 98.87 89.23, 91.97 94.96 C85.08 100.69, 75.95 105.44, 66.81 107.31 C57.67 109.17, 46.08 109.12, 37.11 106.14 C28.15 103.16, 18.96 96.51, 13.02 89.44 C7.08 82.37, 3.04 72.66, 1.46 63.72 C-0.12 54.77, 0.65 44.1, 3.53 35.77 C6.4 27.44, 11.61 19.38, 18.71 13.74 C25.82 8.1, 35.45 3.31, 46.17 1.94 C56.9 0.57, 76.08 3.76, 83.06 5.52 C90.04 7.28, 88.57 11.67, 88.06 12.5 M34.93 5.66 C42.63 1.88, 52.3 0.41, 61.54 1.49 C70.77 2.56, 82.73 6.73, 90.33 12.09 C97.93 17.45, 103.66 25.62, 107.14 33.66 C110.62 41.7, 112.44 51.36, 111.24 60.32 C110.03 69.28, 105.27 80.27, 99.91 87.42 C94.55 94.57, 87.59 99.89, 79.09 103.22 C70.58 106.56, 58.52 108.11, 48.89 107.43 C39.25 106.75, 28.7 104.41, 21.28 99.16 C13.86 93.91, 7.63 84.69, 4.36 75.92 C1.1 67.15, 0.37 55.48, 1.72 46.54 C3.07 37.6, 6.87 29.27, 12.45 22.26 C18.02 15.25, 31.77 7.42, 35.18 4.46 C38.59 1.5, 32.81 3.82, 32.91 4.49" stroke="none" stroke-width="0" fill="#ffc9c9"></path><path d="M60 0.84 C68.88 0.8, 79.02 4.36, 86.68 9.36 C94.34 14.35, 101.86 22.83, 105.96 30.8 C110.05 38.76, 111.76 48.24, 111.27 57.14 C110.78 66.05, 108.22 76.65, 103.02 84.23 C97.82 91.8, 88.53 98.58, 80.06 102.59 C71.6 106.6, 61.26 108.86, 52.22 108.26 C43.18 107.66, 33.39 103.78, 25.81 98.99 C18.23 94.19, 11.1 87.37, 6.75 79.5 C2.41 71.62, -0.79 60.95, -0.27 51.75 C0.26 42.56, 4.59 32.07, 9.91 24.31 C15.23 16.56, 22.01 8.95, 31.66 5.21 C41.31 1.47, 60.77 2.25, 67.8 1.87 C74.83 1.49, 74.3 2.32, 73.84 2.95 M42.18 1.66 C50.34 -1.22, 60.6 0.61, 69.7 3 C78.8 5.38, 89.9 9.73, 96.78 15.95 C103.65 22.16, 108.58 31.66, 110.95 40.3 C113.33 48.94, 113.79 59.25, 111.04 67.79 C108.29 76.33, 101.21 85.05, 94.44 91.55 C87.68 98.04, 79.1 104.5, 70.45 106.78 C61.8 109.07, 51.48 107.56, 42.55 105.25 C33.61 102.94, 23.71 99.19, 16.86 92.93 C10.01 86.66, 3.79 76.34, 1.44 67.67 C-0.92 58.99, 0.15 49.42, 2.73 40.9 C5.31 32.39, 10.17 22.93, 16.9 16.58 C23.63 10.23, 38.9 4.94, 43.12 2.8 C47.34 0.66, 42.29 3.1, 42.24 3.73" stroke="#1e1e1e" stroke-width="2" fill="none"></path></g><g transform="translate(419.95956789120237 1688.0674920756746) rotate(0 17.099990844726562 12.5)"><text x="17.099990844726562" y="17.52" font-family="Virgil, Segoe UI Emoji" font-size="20px" fill="#1e1e1e" text-anchor="middle" style="white-space: pre;" direction="ltr" dominant-baseline="alphabetic">End</text></g><g stroke-linecap="round"><g transform="translate(446.65625690803404 1582.5877878540882) rotate(0 -2.1557575143206122 25.907991292710676)"><path d="M0.06 -0.69 C-0.7 8.06, -3.08 43.81, -3.91 52.51 M-1.36 1.56 C-2.27 9.96, -3.65 42.22, -4.38 50.72" stroke="#1e1e1e" stroke-width="2" fill="none"></path></g><g transform="translate(446.65625690803404 1582.5877878540882) rotate(0 -2.1557575143206122 25.907991292710676)"><path d="M-11.45 26.74 C-10.07 36.84, -5.31 43.77, -4.38 50.72 M-11.45 26.74 C-9.9 33.94, -7.63 39.76, -4.38 50.72" stroke="#1e1e1e" stroke-width="2" fill="none"></path></g><g transform="translate(446.65625690803404 1582.5877878540882) rotate(0 -2.1557575143206122 25.907991292710676)"><path d="M5.62 27.81 C0.9 37.53, -0.44 44.09, -4.38 50.72 M5.62 27.81 C2.59 34.66, 0.29 40.19, -4.38 50.72" stroke="#1e1e1e" stroke-width="2" fill="none"></path></g></g><mask></mask></svg>